<?xml version="1.0" encoding="UTF-8"?>
<!DOCTYPE svg PUBLIC "-//W3C//DTD SVG 1.1//EN" "http://www.w3.org/Graphics/SVG/1.1/DTD/svg11.dtd">
<!-- Creator: CorelDRAW 2019 (64 Bit) -->
<svg xmlns="http://www.w3.org/2000/svg" xml:space="preserve" width="210mm" height="297mm" version="1.1" style="shape-rendering:geometricPrecision; text-rendering:geometricPrecision; image-rendering:optimizeQuality; fill-rule:evenodd; clip-rule:evenodd"
viewBox="0 0 21000 29700"
 xmlns:xlink="http://www.w3.org/1999/xlink">
 <defs>
  <style type="text/css">
   <![CDATA[
    .fil1 {fill:black}
    .fil7 {fill:#686868}
    .fil10 {fill:#9C9C9C}
    .fil3 {fill:#9D9D9D}
    .fil4 {fill:#C1923C}
    .fil6 {fill:#C3C7C8}
    .fil5 {fill:#C4C8C9}
    .fil8 {fill:#D5AE69}
    .fil2 {fill:gainsboro}
    .fil9 {fill:#EBD491}
    .fil0 {fill:yellow;fill-rule:nonzero}
   ]]>
  </style>
 </defs>
 <g id="Camada_x0020_1">
  <metadata id="CorelCorpID_0Corel-Layer"/>
  <g id="_1493218231216">
   <g>
    <path class="fil0" d="M8184.89 16782.87l169.06 0.39 -0.39 169.05 -169.05 -0.41 -169.08 -0.38 -169.06 -0.41 -169.06 -0.39 -169.06 -0.41 0.39 -169.06 169.06 0.41 169.06 0.39 169.05 0.41 169.08 0.41zm169.06 0.39l0.41 -169.06 169.06 0.41 -0.41 169.06 -169.06 -0.41zm-845.31 -2.01l-169.06 -0.39 0.41 -169.06 -169.06 -0.41 0.39 -169.06 -169.06 -0.38 0.41 -169.06 0.39 -169.08 169.06 0.39 0.41 -169.06 169.06 0.41 0.41 -169.06 -169.06 -0.41 0.39 -169.06 -169.06 -0.39 0.41 -169.06 0.39 -169.05 169.06 0.38 0.41 -169.05 169.05 0.41 0.39 -169.06 169.06 0.41 169.06 0.39 169.06 0.41 169.06 0.38 169.08 0.41 -0.39 169.06 169.06 0.39 -0.41 169.06 169.05 0.41 -0.41 169.06 169.06 0.39 -0.39 169.05 -0.41 169.06 -169.05 -0.39 -0.39 169.06 -169.06 -0.41 -0.41 169.06 169.06 0.41 -0.39 169.08 169.06 0.39 -0.41 169.06 -0.39 169.06 -169.06 -0.39 0.39 -169.06 0.41 -169.06 -169.06 -0.41 0.39 -169.08 -169.06 -0.39 0.41 -169.06 -169.08 -0.41 0.39 -169.05 169.08 0.41 169.06 0.38 169.06 0.41 0.41 -169.05 0.38 -169.06 -169.05 -0.41 -169.04 -0.39 -169.08 -0.41 -169.06 -0.39 -169.06 -0.41 -0.41 169.06 -169.06 -0.41 -0.38 169.06 -0.41 169.06 169.05 0.41 -0.41 169.05 169.06 0.39 -0.39 169.08 169.06 0.41 -0.41 169.06 -169.06 -0.41 -169.05 -0.39 -169.06 -0.41 -0.39 169.06 -0.41 169.06zm2706.98 -838.91l0.39 -169.05 -169.06 -0.39 0.41 -169.06 0.39 -169.06 -169.06 -0.41 -169.06 -0.39 -0.38 169.06 -0.41 169.06 -169.08 -0.41 -0.39 169.06 -169.06 -0.41 0.39 -169.06 0.41 -169.04 0.39 -169.06 -169.06 -0.41 -169.06 -0.41 -0.39 169.06 -0.41 169.06 -0.39 169.06 -0.41 169.06 -0.39 169.08 -0.41 169.06 169.06 0.41 -0.39 169.05 -0.41 169.06 169.06 0.39 169.06 0.41 -0.41 169.06 -169.06 -0.41 -169.06 -0.39 0.41 -169.06 -169.05 -0.41 0.41 -169.06 -169.06 -0.38 0.39 -169.06 -169.06 -0.41 0.41 -169.06 0.39 -169.08 -169.06 -0.39 0.41 -169.06 0.39 -169.06 0.41 -169.05 0.38 -169.06 0.41 -169.06 0.41 -169.06 169.06 0.39 0.39 -169.06 169.06 0.41 169.06 0.41 -0.39 169.04 169.04 0.41 169.05 0.41 0.41 -169.06 169.06 0.39 169.08 0.41 -0.41 169.06 169.06 0.38 169.06 0.41 0.41 -169.05 169.06 0.38 169.06 0.41 -0.41 169.06 169.05 0.39 -0.38 169.06 169.05 0.41 -0.41 169.06 169.06 0.39 -0.39 169.05 -0.41 169.06 -0.38 169.06 -0.41 169.06 -0.41 169.08 -0.39 169.06 -169.06 -0.39 -0.41 169.06 -0.39 169.06 -169.06 -0.41 -0.41 169.05 -169.06 -0.38 -169.05 -0.41 0.41 -169.06 169.05 0.41 169.06 0.39 0.39 -169.06 0.41 -169.06 169.06 0.41 0.39 -169.06 0.41 -169.08 0.41 -169.06 0.39 -169.06 0.41 -169.05 0.38 -169.06 -169.05 -0.41 -169.06 -0.39 -0.39 169.06 -0.41 169.06 -0.39 169.05 -169.06 -0.41zm-2 845.32l-169.06 -0.39 0.39 -169.06 169.05 0.39 -0.38 169.06zm-676.26 -1.6l0.39 -169.06 169.08 0.39 -0.39 169.06 -169.08 -0.39zm507.59 -167.85l-169.06 -0.41 -169.06 -0.41 0.41 -169.04 0.41 -169.05 0.39 -169.08 169.06 0.38 169.05 0.41 -0.38 169.08 -0.41 169.06 -0.41 169.06zm2028.35 173.85l169.06 0.41 -0.41 169.06 -169.06 -0.41 -169.06 -0.39 -169.08 -0.41 -169.05 -0.41 0.4 -169.04 169.06 0.39 169.08 0.41 169.06 0.39zm169.06 0.41l0.39 -169.06 169.06 0.39 -0.39 169.06 -169.06 -0.39zm-676.26 -1.6l-169.05 -0.41 0.38 -169.06 169.06 0.41 -0.39 169.06zm845.71 -167.07l0.41 -169.06 169.06 0.41 -0.41 169.06 -169.06 -0.41zm-1014.38 -2.4l-169.05 -0.41 0.41 -169.05 169.05 0.41 -0.41 169.05zm1183.85 -166.25l0.38 -169.06 0.41 -169.08 0.39 -169.06 0.41 -169.05 169.06 0.41 -0.41 169.03 -0.39 169.06 -0.41 169.08 -0.39 169.06 -169.05 -0.39zm-676.24 -1.6l-169.08 -0.41 0.39 -169.05 -169.06 -0.39 0.41 -169.08 0.39 -169.06 169.06 0.39 0.41 -169.06 169.08 0.41 169.06 0.39 -0.41 169.06 169.06 0.41 -0.39 169.05 -0.41 169.08 -169.06 -0.41 -0.39 169.06 -169.06 -0.39zm-676.25 -1.61l-169.06 -0.39 0.39 -169.06 -169.06 -0.41 0.41 -169.08 -169.06 -0.39 0.41 -169.06 0.39 -169.06 0.41 -169.05 0.39 -169.06 169.05 0.39 0.41 -169.04 169.06 0.39 0.39 -169.06 169.06 0.41 0.41 -169.06 169.06 0.39 169.06 0.41 169.06 0.39 169.08 0.41 -0.41 169.06 169.05 0.38 -0.38 169.06 169.05 0.41 -0.41 169.06 169.06 0.39 -0.41 169.06 169.06 0.41 -0.39 169.06 -169.06 -0.41 0.39 -169.06 -169.06 -0.39 0.41 -169.06 -169.05 -0.41 -169.06 -0.39 -169.08 -0.41 -169.06 -0.39 -0.39 169.06 -169.06 -0.41 -0.41 169.06 -169.06 -0.39 -0.41 169.06 -0.39 169.06 -0.41 169.06 -0.38 169.06zm2873.21 344.93l169.06 0.39 -0.39 169.06 -169.06 -0.39 -169.05 -0.41 0.38 -169.06 169.06 0.41zm-845.31 -2.01l169.06 0.41 -0.39 169.06 -169.06 -0.41 -169.06 -0.41 0.39 -169.05 169.06 0.4zm1014.37 2.4l0.41 -169.06 0.39 -169.06 169.06 0.41 -0.39 169.06 -0.41 169.06 -169.06 -0.41zm-338.12 -0.8l-169.05 -0.39 0.41 -169.06 169.05 0.39 -0.41 169.06zm-507.19 -1.19l0.41 -169.05 0.41 -169.06 0.39 -169.06 169.05 0.39 -0.38 169.06 169.05 0.41 -0.38 169.05 -169.08 -0.41 -0.41 169.06 -169.06 -0.39zm-338.12 -0.81l-169.06 -0.39 0.41 -169.06 -169.06 -0.41 0.41 -169.06 -169.05 -0.39 0.38 -169.06 0.41 -169.08 0.39 -169.06 0.41 -169.05 0.39 -169.06 0.41 -169.06 0.39 -169.06 0.41 -169.06 169.06 0.41 0.41 -169.06 169.06 0.39 169.05 0.41 169.04 0.39 169.06 0.41 169.06 0.39 169.08 0.41 -0.39 169.06 169.06 0.39 -0.41 169.05 169.06 0.41 -0.39 169.06 169.06 0.39 -0.41 169.06 169.05 0.41 -0.38 169.06 -0.41 169.06 -169.06 -0.41 -0.39 169.05 -169.06 -0.38 -0.41 169.08 169.06 0.38 -0.41 169.06 -169.06 -0.39 0.41 -169.05 -169.06 -0.41 0.41 -169.08 169.06 0.41 0.39 -169.06 169.06 0.39 0.41 -169.06 0.39 -169.06 -169.06 -0.39 0.41 -169.06 -169.06 -0.41 -169.06 -0.39 -169.08 -0.41 -169.06 -0.38 -169.06 -0.41 -169.05 -0.39 -0.41 169.06 -0.39 169.05 -0.41 169.06 -0.39 169.06 -0.41 169.08 -0.39 169.06 -0.41 169.04 -0.41 169.06zm509.59 -1013.17l169.08 0.41 -0.41 169.06 -169.08 -0.41 -169.06 -0.39 0.41 -169.06 169.06 0.39zm1857.27 1018.78l169.06 0.41 -0.39 169.05 -169.06 -0.41 -169.08 -0.38 -169.06 -0.41 -169.05 -0.39 -169.06 -0.41 0.39 -169.06 169.05 0.41 169.06 0.39 169.06 0.41 169.08 0.39zm169.06 0.41l0.41 -169.06 169.06 0.39 -0.41 169.05 -169.06 -0.38zm-845.31 -2.01l-169.06 -0.41 0.41 -169.06 -169.06 -0.39 0.39 -169.06 -169.06 -0.41 0.41 -169.06 0.41 -169.08 0.39 -169.05 0.41 -169.06 0.39 -169.06 0.41 -169.06 0.38 -169.04 0.41 -169.05 169.06 0.38 0.39 -169.05 169.06 0.41 169.06 0.38 169.06 0.41 169.05 0.39 169.06 0.41 -0.39 169.06 169.08 0.39 -0.41 169.06 169.06 0.41 -0.39 169.06 169.06 0.38 -0.41 169.06 169.06 0.41 -0.41 169.06 169.06 0.41 -0.39 169.04 -0.41 169.06 -0.39 169.08 -0.41 169.06 -169.05 -0.39 -0.39 169.06 -169.06 -0.41 0.39 -169.06 169.06 0.41 0.41 -169.06 0.38 -169.08 0.41 -169.06 0.39 -169.06 -169.06 -0.41 0.41 -169.06 -169.06 -0.39 0.41 -169.05 -169.05 -0.41 -169.08 -0.39 -169.06 -0.41 -169.06 -0.39 -169.06 -0.41 -0.41 169.06 -0.39 169.06 -0.41 169.05 -0.41 169.06 -0.39 169.08 -0.41 169.06 -0.38 169.06 -0.41 169.06zm507.97 -336.91l-169.06 -0.41 0.41 -169.06 0.39 -169.08 0.41 -169.06 0.41 -169.06 169.04 0.41 169.08 0.39 -0.39 169.06 169.06 0.41 -0.41 169.06 -0.39 169.08 -169.06 -0.41 -0.41 169.06 -169.08 -0.39z"/>
    <path class="fil0" d="M6011.26 14604.7l169.08 -0.3 0.3 169.06 -169.08 0.3 -169.06 0.28 -0.3 -169.06 169.06 -0.28zm169.08 -0.3l-0.3 -169.06 -0.28 -169.08 -0.31 -169.06 169.06 -0.3 169.06 -0.3 169.06 -0.3 0.28 169.05 -169.06 0.31 -169.04 0.3 0.28 169.08 0.31 169.06 -169.06 0.3zm-338.14 0.58l-169.06 0.3 -0.3 -169.05 -169.06 0.3 -0.28 -169.08 -169.06 0.3 -0.3 -169.06 -0.3 -169.06 -0.3 -169.06 -0.31 -169.08 -0.3 -169.05 -0.3 -169.06 -0.28 -169.06 -0.3 -169.08 169.05 -0.3 -0.3 -169.06 169.06 -0.3 169.06 -0.28 169.06 -0.31 169.08 -0.3 169.06 -0.3 0.3 169.06 169.06 -0.3 0.28 169.08 169.06 -0.31 0.3 169.06 169.08 -0.3 0.3 169.06 169.06 -0.3 0.3 169.05 0.3 169.08 0.3 169.06 -169.05 0.31 0.3 169.05 -169.08 0.31 -0.3 -169.06 169.08 -0.3 -0.31 -169.06 -0.3 -169.08 -0.3 -169.06 -169.08 0.3 -0.3 -169.06 -169.06 0.3 -169.06 0.31 -169.06 0.3 -169.08 0.3 -169.06 0.3 0.31 169.06 0.3 169.06 0.3 169.08 0.3 169.06 0.3 169.03 0.31 169.06 0.28 169.08 0.3 169.06zm505.41 -1015.28l169.05 -0.3 0.31 169.08 -169.06 0.3 -169.06 0.31 -0.3 -169.08 169.06 -0.31zm1185.22 1012.3l169.08 -0.3 0.3 169.06 -169.08 0.3 -169.06 0.3 -0.3 -169.05 169.06 -0.31zm169.08 -0.3l-0.31 -169.06 -0.3 -169.08 -0.28 -169.06 -0.3 -169.05 -0.3 -169.06 -0.3 -169.08 -0.31 -169.06 -0.3 -169.06 169.06 -0.3 0.3 169.06 0.3 169.06 0.31 169.08 0.3 169.05 0.3 169.06 0.28 169.06 0.3 169.08 0.31 169.06 -169.06 0.3zm-338.14 0.61l-169.06 0.3 -0.3 -169.06 -169.06 0.28 -0.3 -169.08 -169.06 0.3 -0.28 -169.06 -0.3 -169.05 -0.31 -169.06 -0.3 -169.08 -0.3 -169.06 -0.3 -169.06 -0.3 -169.06 -0.28 -169.08 169.05 -0.3 -0.3 -169.04 169.06 -0.3 169.06 -0.3 0.28 169.06 169.06 -0.31 0.3 169.08 169.08 -0.3 0.3 169.06 -169.08 0.3 -169.06 0.31 0.31 169.05 0.3 169.06 0.3 169.08 0.3 169.06 0.3 169.06 0.28 169.06 0.31 169.08 0.3 169.06zm1350.72 -1016.79l-0.3 -169.06 -169.06 0.3 -0.3 -169.06 -169.08 0.3 -169.06 0.28 0.3 169.06 0.3 169.06 169.06 -0.28 0.3 169.06 169.08 -0.28 0.3 169.06 0.28 169.06 -169.08 0.28 0.31 169.05 -169.06 0.31 0.3 169.08 0.3 169.06 169.06 -0.31 169.08 -0.28 0.3 169.06 -169.08 0.28 -169.06 0.3 -0.3 -169.05 -169.06 0.3 -0.3 -169.06 -169.06 0.3 -0.3 -169.08 -169.06 0.3 -0.28 -169.06 -0.3 -169.05 169.06 -0.31 -0.3 -169.05 169.05 -0.31 -0.3 -169.08 -169.06 0.31 -0.3 -169.06 -169.06 0.3 -0.3 -169.06 -0.3 -169.06 -0.3 -169.08 169.06 -0.3 -0.28 -169.06 169.05 -0.3 169.06 -0.3 0.28 169.06 169.06 -0.28 0.3 169.08 169.08 -0.31 -0.3 -169.08 169.06 -0.3 -0.28 -169.06 169.06 -0.3 169.06 -0.3 0.28 169.06 169.08 -0.3 0.3 169.08 169.06 -0.31 0.3 169.06 169.06 -0.3 0.3 169.06 0.3 169.06 -169.06 0.3 0.31 169.08 -169.06 0.3 0.3 169.06 0.28 169.06 169.06 -0.3 0.3 169.05 169.06 -0.3 0.3 169.08 0.3 169.06 -169.06 0.3 0.31 169.06 -169.06 0.3 -169.08 0.3 -0.3 -169.05 169.08 -0.31 169.05 -0.3 -0.3 -169.06 -0.3 -169.08 -169.06 0.31 -0.3 -169.06 -169.08 0.3 -0.28 -169.06 -0.3 -169.06 169.08 -0.3 -0.31 -169.08 169.06 -0.3 -0.3 -169.06 -0.3 -169.06 -169.06 0.3 -169.08 0.31 0.3 169.05 -169.06 0.31 0.31 169.06 -169.06 0.3zm339.91 1013.79l-169.06 0.3 -0.31 -169.06 169.06 -0.3 0.31 169.06zm-507.18 0.9l-0.3 -169.06 169.06 -0.3 0.3 169.06 -169.06 0.3zm337.81 -169.66l-169.05 0.3 -0.31 -169.08 169.06 -0.3 0.3 169.08zm1859.99 165.76l169.08 -0.3 0.3 169.05 -169.08 0.31 -169.05 0.3 -169.06 0.3 -169.06 0.3 -169.08 0.3 -169.06 0.31 -0.3 -169.06 169.06 -0.3 169.08 -0.31 169.06 -0.3 169.05 -0.3 169.06 -0.3zm169.08 -0.3l-0.3 -169.06 -0.3 -169.08 169.06 -0.28 0.3 169.08 0.3 169.05 -169.06 0.29zm-1014.39 1.81l-169.06 0.28 -0.3 -169.06 -169.06 0.3 -0.3 -169.08 -169.06 0.3 -0.3 -169.05 -0.28 -169.06 -0.3 -169.06 -0.31 -169.08 -0.3 -169.06 -0.3 -169.06 -0.3 -169.06 -0.31 -169.08 169.06 -0.3 -0.3 -169.06 169.06 -0.28 169.06 -0.3 169.06 -0.3 169.08 -0.3 169.05 -0.31 169.06 -0.3 0.31 169.06 169.05 -0.3 0.31 169.08 169.08 -0.28 0.3 169.06 169.06 -0.31 0.3 169.06 0.3 169.06 -169.06 0.28 0.3 169.08 169.06 -0.28 0.28 169.06 0.3 169.06 -169.05 0.28 0.3 169.06 -169.08 0.3 -169.06 0.3 -169.06 0.3 -169.06 0.31 -0.3 -169.06 169.06 -0.31 169.06 -0.3 169.06 -0.3 169.08 -0.3 -0.31 -169.06 -0.28 -169.06 -169.08 0.3 -169.05 0.31 -169.06 0.3 -169.06 0.3 -0.3 -169.08 169.05 -0.3 169.06 -0.3 169.06 -0.31 169.08 -0.3 -0.3 -169.06 -0.3 -169.03 -169.08 0.28 -169.06 0.3 -169.06 0.3 -169.06 0.3 -169.08 0.31 -169.06 0.3 0.31 169.06 0.3 169.05 0.3 169.08 0.3 169.06 0.28 169.06 0.3 169.06 0.31 169.08 0.3 169.06zm2366.88 -4.21l169.08 -0.28 0.3 169.06 -169.08 0.28 -169.05 0.3 -169.06 0.3 -169.06 0.3 -169.08 0.31 -169.06 0.3 -0.3 -169.06 169.06 -0.3 169.08 -0.3 169.05 -0.31 169.06 -0.3 169.06 -0.3zm169.08 -0.28l-0.3 -169.06 -0.3 -169.08 169.06 -0.3 0.3 169.08 0.3 169.06 -169.06 0.3zm-1014.39 1.79l-169.06 0.3 -0.3 -169.06 -169.06 0.31 -0.3 -169.08 -169.06 0.28 -0.3 -169.06 -0.31 -169.06 -0.28 -169.06 -0.3 -169.08 -0.3 -169.06 -0.3 -169.03 -0.3 -169.06 -0.31 -169.08 169.06 -0.3 -0.3 -169.06 169.06 -0.3 169.06 -0.31 0.3 169.06 169.06 -0.3 0.3 169.08 169.08 -0.3 0.3 169.06 169.06 -0.31 0.3 169.06 0.3 169.06 0.31 169.08 169.03 -0.3 0.3 169.06 169.06 -0.28 0.31 169.03 169.08 -0.28 0.3 169.06 -169.08 0.28 -169.06 0.3 -169.06 0.31 -169.06 0.3 -0.3 -169.06 -0.3 -169.06 -0.28 -169.06 -0.3 -169.08 -0.31 -169.06 -0.3 -169.05 -169.08 0.3 -169.06 0.3 0.3 169.06 0.31 169.06 0.3 169.08 0.28 169.06 0.3 169.05 0.3 169.06 0.31 169.08 0.3 169.06zm2197.82 -3.88l169.06 -0.31 0.3 169.06 -169.06 0.31 -169.05 0.28 -169.06 0.3 -169.08 0.3 -169.06 0.3 -0.3 -169.06 169.06 -0.3 169.08 -0.3 169.05 -0.3 169.06 -0.28zm169.06 -0.31l-0.3 -169.05 169.08 -0.31 0.3 169.06 -169.08 0.3zm-845.31 1.49l-169.06 0.31 -0.3 -169.06 -169.06 0.3 -0.3 -169.08 -169.06 0.3 -0.3 -169.06 -0.31 -169.06 169.06 -0.3 -0.3 -169.06 169.06 -0.3 -0.28 -169.08 -169.06 0.3 -0.3 -169.05 -169.06 0.3 -0.3 -169.06 -0.31 -169.06 169.06 -0.3 -0.3 -169.08 169.06 -0.3 -0.3 -169.06 169.06 -0.3 169.05 -0.31 169.08 -0.3 169.06 -0.28 169.06 -0.3 0.3 169.06 169.06 -0.3 0.3 169.08 169.08 -0.31 0.31 169.06 169.05 -0.3 0.31 169.06 0.28 169.06 -169.06 0.3 0.3 169.08 -169.08 0.3 0.3 169.06 169.08 -0.3 0.3 169.06 169.06 -0.31 0.3 169.06 0.31 169.08 -169.06 0.3 -0.3 -169.08 -0.31 -169.05 -169.08 0.3 -0.3 -169.06 -169.06 0.3 -0.3 -169.06 -169.06 0.28 -0.28 -169.08 169.06 -0.28 169.04 -0.3 169.08 -0.3 -0.28 -169.06 -0.3 -169.06 -169.08 0.3 -169.06 0.31 -169.06 0.28 -169.06 0.3 -169.08 0.3 0.3 169.06 -169.06 0.3 0.31 169.06 0.28 169.08 169.05 -0.3 0.31 169.06 169.08 -0.31 0.3 169.06 169.06 -0.3 0.3 169.06 -169.06 0.3 -169.08 0.3 -169.06 0.31 0.3 169.07 0.31 169.06z"/>
    <polygon class="fil1" points="5345.33,16195.69 5435.85,16198.5 5438.31,16107.47 5347.62,16104.67 "/>
    <path class="fil2" d="M6272.29 15668.8l2.4 -82.56 -91.29 -3.94 -3.35 88.67c29.71,1.61 64.37,6.91 92.24,-2.17z"/>
   </g>
   <g>
    <path class="fil3" d="M6256.54 15403.18l-91.23 -2.76 2.51 -91.33 91.45 2.55 -2.73 91.54zm281.2 -265.5l-91.3 -2.6 2.91 -91.25 91.22 2.96 -2.83 90.89zm13.27 -455.41l-2.79 91.15 -90.97 -2.8 -2.76 91.2 -91 -2.81 -2.76 91.19 -91.01 -2.81 -2.79 91.19 -90.98 -2.77 -2.78 91.15 -90.98 -2.79 -2.76 91.19 -91.01 -2.81 -2.75 91.2 -91.01 -2.81 -2.58 90.98 -91.19 -2.56 -2.58 90.95 -91.19 -2.6 -2.56 91.02 -91.2 -2.63 -2.57 91.01 -91.19 -2.63 -2.59 90.98 -91.19 -2.56 -2.5 91.13 90.79 2.85 -2.39 90.91 91.29 3.17 2.21 -91.56 91.29 2.61 -2.36 90.91 90.57 2.72 5.37 -181.94 182.28 5.4 5.36 -182.04 182.25 5.24 2.7 -91.06 91.05 2.72 2.81 -90.78 90.91 2.36 2.83 -91.04 90.75 2.5 3.05 -90.87 90.96 2.6 2.7 -91.05 91.06 2.74 2.94 -91.02 90.82 2.56 5.35 -182.21 90.77 2.3 3.04 -90.61 90.75 2.25 3.02 -90.94 91.03 4.89 2.46 -92.84 -364.2 -10.95 -2.78 91.19 -90.99 -2.77z"/>
    <polygon class="fil4" points="5324.2,16104.67 5414.89,16107.47 5506.09,16109.72 5504.03,16201.03 5593.77,16203.19 5597.33,16112.38 5600.16,16021.52 5509.52,16018.68 5511.72,15927.79 5421.11,15924.93 5423.32,15834.03 5332.72,15831.15 5334.97,15740.18 5244.36,15737.4 5246.55,15646.43 5064.63,15641.09 5058.85,15823.47 5149.53,15826.28 5147.33,15917.27 5237.92,15920.05 5235.71,16011.04 5326.33,16013.81 "/>
    <path class="fil1" d="M5686.05 16206.22l90.85 2.85 -2.75 91.06 91.2 2.69 -0.18 5.18 -5.52 177.15 -182.01 -5.35 2.45 -90.69 -90.84 -3.04 2.36 -91.02 -90.86 -2.74 0.21 -5.2 3.07 -86.08 -91.59 -2.53 -2.52 91.09c110.18,2.39 91.53,-15.25 88.31,93.66 110.08,3.25 91.64,-16.32 88.39,93.77 110.08,3.25 91.63,-16.32 88.38,93.76l273.22 8.07 8.07 -273.22c-110.07,-3.26 -91.63,16.31 -88.38,-93.77 -102.75,-3.04 -96.45,16.91 -87.79,-93.14l-7.65 -0.52 -76.61 -2.37 -7.54 -0.28 -2.27 90.67z"/>
    <path class="fil1" d="M5232.69 16101.56l91.51 3.11 2.13 -90.86 -90.62 -2.77 2.21 -90.99 -90.59 -2.78 2.2 -90.99 -90.68 -2.81 5.78 -182.38 181.92 5.34 -2.19 90.97 90.61 2.78 -2.25 90.97 90.6 2.88 2.5 -91.13c-110.15,-2.15 -91.43,14.94 -88.23,-93.63 -110.08,-3.25 -91.63,16.32 -88.38,-93.77l-273.22 -8.07 -8.08 273.23c110.09,3.25 91.64,-16.32 88.39,93.76 110.08,3.26 91.64,-16.31 88.39,93.77 105.49,3.11 94.64,-16.76 88,93.37z"/>
    <polygon class="fil1" points="6644.78,14593.85 7008.98,14604.8 7006.52,14697.64 7001.1,14882.16 6998.53,14969.13 7089.55,14971.77 7103.01,14516.4 6647.63,14502.94 "/>
    <path class="fil5" d="M6253.73 15493.96l88.57 2.01 -2.22 89.59 -89.55 -2.86 3.2 -88.74zm93.72 -88.42l88.86 2.07 -2.5 89.56 -89.41 -2.78 3.05 -88.85zm93.58 -88.54l88.66 2.24 -2.06 89.54 -89.57 -2.71 2.97 -89.07zm94.01 -88.27l88.83 2.25 -2.55 89.49 -89.52 -3.19 3.24 -88.55zm93.76 -88.31l88.78 2.18 -2.5 89.52 -89.49 -3.46 3.21 -88.24zm0 0l-91.06 -2.74 -2.7 91.05 -90.96 -2.6 -3.05 90.87 -90.75 -2.5 -2.83 91.04 -90.91 -2.36 -2.81 90.78 -91.05 -2.72 -2.7 91.06 91.29 3.94 91.41 2.14 2.73 -90.85 91.04 2.46 2.73 -90.82 91.04 2.44 2.72 -90.85 91.04 2.46 2.92 -91.04 90.85 2.66 2.93 -91.01 90.83 2.62 -0.04 -7.97c-27.83,9.07 -62.44,3.8 -92.23,2.17l3.32 -88.69 -90.82 -2.56 -2.94 91.02z"/>
    <path class="fil6" d="M5784.72 15935.64l88.74 2.12 -2.11 89.83 -89.85 -2.8 3.22 -89.15zm93.7 -88.93l89.14 2.77 -2.51 89.81 -89.76 -3.43 3.13 -89.15zm-93.7 88.93l-90.57 -2.72 2.36 -90.91 -91.29 -2.61 -2.21 91.56 -2.85 90.56 90.15 2.92 -1.99 91.11 7.54 0.28c-9.32,-27.69 -3.97,-62.58 -2.15,-92.19l85.98 2.56c0.08,29.8 3.11,64.52 -7.22,92l7.65 0.52 2.72 -90.84 91.04 2.46 2.73 -90.88 91.04 2.49 2.94 -91.01 90.82 2.63 -0.06 -7.68c-28.1,8.72 -62.54,3.54 -92.46,1.95l3.48 -88.74 -182.28 -5.4 -5.37 181.94z"/>
    <path class="fil6" d="M6722.56 15051.96l91.83 3.58 1.21 -92.33 92.68 4.12 0.95 -92.76c29.97,0.73 64.41,-2.78 91.87,7.59l5.42 -184.52 -91.03 -4.89 -3.02 90.94 -90.75 -2.25 -3.04 90.61 -90.77 -2.3 -5.35 182.21z"/>
    <polygon class="fil7" points="5138.98,16189.99 5136.38,16281.37 5045.26,16278.38 5042.98,16369.95 5134.43,16372.32 5225.14,16375.47 5227.53,16284.2 5319.06,16286.96 5321.91,16195.69 5324.2,16104.67 5232.69,16101.56 5230.19,16192.99 "/>
    <polygon class="fil8" points="5504.03,16201.03 5500.96,16287.11 5500.75,16292.31 5591.61,16295.05 5589.25,16386.07 5680.09,16389.11 5770.77,16390.77 5774.15,16300.13 5682.94,16297.39 5686.05,16206.22 5688.32,16115.55 5597.33,16112.38 5593.77,16203.19 "/>
    <polygon class="fil1" points="5125.86,16645.72 5128.63,16554.77 5039.23,16552.05 4946.44,16549.04 4949,16459.15 4951.44,16366.76 4860.7,16364.45 4852.63,16637.65 "/>
    <path class="fil5" d="M5972.37 15759.1l92.03 3.68 1.83 -92.44 88.4 2.56c0.13,29.65 3.25,64.55 -7.43,91.74l7.95 0.51 2.92 -91.03 90.85 2.64 -0.05 -7.96c-27.87,9.08 -62.53,3.78 -92.23,2.17l3.34 -88.67 -182.25 -5.24 -5.36 182.04z"/>
    <polygon class="fil9" points="5680.09,16389.11 5677.64,16479.8 5859.65,16485.15 5865.17,16308 5865.35,16302.82 5774.15,16300.13 5770.77,16390.77 "/>
    <path class="fil2" d="M6908.28 14967.33l90.25 1.8 2.57 -86.97c-27.46,-10.37 -61.9,-6.86 -91.87,-7.59l-0.95 92.76z"/>
    <polygon class="fil3" points="5039.97,16460.68 5131.72,16464.02 5134.43,16372.32 5042.98,16369.95 "/>
    <polygon class="fil7" points="4949,16459.15 5039.97,16460.68 5042.98,16369.95 4951.44,16366.76 "/>
    <polygon class="fil2" points="6814.39,15055.54 6904.76,15057.52 6908.28,14967.33 6815.6,14963.21 "/>
    <polygon class="fil6" points="6256.54,15403.18 6259.27,15311.64 6167.82,15309.09 6165.31,15400.42 "/>
    <polygon class="fil8" points="5412.44,16198.5 5504.03,16201.03 5506.09,16109.72 5414.89,16107.47 "/>
    <polygon class="fil10" points="5225.14,16375.47 5316.27,16378.04 5319.06,16286.96 5227.53,16284.2 "/>
    <polygon class="fil10" points="5039.23,16552.05 5039.97,16460.68 4949,16459.15 4946.44,16549.04 "/>
    <polygon class="fil6" points="6537.74,15137.68 6540.57,15046.79 6449.35,15043.83 6446.44,15135.08 "/>
    <polygon class="fil1" points="4951.44,16366.76 5042.98,16369.95 5045.26,16278.38 4954.46,16276.07 "/>
    <polygon class="fil9" points="5774.15,16300.13 5776.9,16209.07 5686.05,16206.22 5682.94,16297.39 "/>
    <polygon class="fil1" points="5138.98,16189.99 5230.19,16192.99 5232.69,16101.56 5142,16099.3 "/>
    <polygon class="fil1" points="6269.72,14947.39 6360.73,14950.2 6363.49,14859.01 6272.56,14856.5 "/>
    <polygon class="fil1" points="6363.49,14859.01 6454.49,14861.82 6457.25,14770.62 6366.33,14768.12 "/>
    <polygon class="fil1" points="5894.66,15300.94 5985.67,15303.75 5988.42,15212.55 5897.5,15210.05 "/>
    <polygon class="fil1" points="5519.6,15654.48 5610.79,15657.11 5613.36,15566.1 5522.44,15563.58 "/>
    <polygon class="fil1" points="5988.42,15212.55 6079.43,15215.36 6082.19,15124.17 5991.27,15121.65 "/>
    <polygon class="fil1" points="5613.36,15566.1 5704.56,15568.73 5707.12,15477.71 5616.2,15475.2 "/>
    <polygon class="fil1" points="6175.95,15035.81 6266.93,15038.58 6269.72,14947.39 6178.8,14944.89 "/>
    <polygon class="fil1" points="6551.01,14682.27 6642,14685.04 6644.78,14593.85 6553.86,14591.34 "/>
    <polygon class="fil1" points="5425.82,15742.9 5517.01,15745.46 5519.6,15654.48 5428.67,15651.97 "/>
    <polygon class="fil1" points="5800.89,15389.36 5892.08,15391.92 5894.66,15300.94 5803.73,15298.43 "/>
    <polygon class="fil6" points="5131.72,16464.02 5222.4,16466.33 5225.14,16375.47 5134.43,16372.32 "/>
    <polygon class="fil1" points="5707.12,15477.71 5798.31,15480.31 5800.89,15389.36 5709.97,15386.81 "/>
    <polygon class="fil1" points="6082.19,15124.17 6173.17,15126.96 6175.95,15035.81 6085.03,15033.27 "/>
    <polygon class="fil1" points="5045.26,16278.38 5136.38,16281.37 5138.98,16189.99 5048.23,16187.68 "/>
    <polygon class="fil1" points="6457.25,14770.62 6548.22,14773.42 6551.01,14682.27 6460.1,14679.72 "/>
    <polygon class="fil1" points="5222.4,16466.33 5313.39,16468.94 5316.27,16378.04 5225.14,16375.47 "/>
    <polygon class="fil1" points="5316.27,16378.04 5407.15,16380.54 5409.92,16289.59 5319.06,16286.96 "/>
    <polygon class="fil6" points="5319.06,16286.96 5409.92,16289.59 5412.44,16198.5 5321.91,16195.69 "/>
    <polygon class="fil1" points="5128.63,16554.77 5219.62,16557.32 5222.4,16466.33 5131.72,16464.02 "/>
    <polygon class="fil1" points="5600.16,16021.52 5603.01,15930.96 5511.72,15927.79 5509.52,16018.68 "/>
    <polygon class="fil6" points="5039.23,16552.05 5128.63,16554.77 5131.72,16464.02 5039.97,16460.68 "/>
    <polygon class="fil1" points="5511.72,15927.79 5514.11,15836.88 5423.32,15834.03 5421.11,15924.93 "/>
    <polygon class="fil1" points="5597.33,16112.38 5688.32,16115.55 5690.31,16024.44 5600.16,16021.52 "/>
    <polygon class="fil1" points="6248.87,15668.8 6248.92,15676.76 6339.43,15678.81 6342.68,15588.38 6251.27,15586.24 "/>
    <polygon class="fil1" points="6061.35,15845.89 6061.41,15853.57 6151.9,15855.58 6155.15,15765.15 6147.2,15764.64 6064.4,15762.78 "/>
    <polygon class="fil1" points="6811.47,15138.48 6811.51,15146.45 6902.03,15148.49 6904.76,15057.52 6814.39,15055.54 "/>
    <polygon class="fil1" points="6623.98,15323.22 6714.5,15325.26 6717.75,15234.84 6626.9,15232.18 "/>
    <polygon class="fil1" points="6155.15,15765.15 6245.66,15767.19 6248.92,15676.76 6158.07,15674.12 "/>
    <polygon class="fil1" points="6530.22,15411.61 6620.73,15413.65 6623.98,15323.22 6532.94,15320.76 "/>
    <polygon class="fil1" points="6342.68,15588.38 6433.2,15590.42 6436.45,15499.99 6345.41,15497.53 "/>
    <polygon class="fil1" points="6717.75,15234.84 6808.26,15236.88 6811.51,15146.45 6720.68,15143.83 "/>
    <polygon class="fil1" points="6436.45,15499.99 6526.96,15502.04 6530.22,15411.61 6439.18,15409.17 "/>
    <polygon class="fil1" points="5873.88,16030.34 5964.37,16032.34 5967.65,15941.95 5876.61,15939.46 "/>
    <polygon class="fil1" points="5780.12,16118.72 5870.6,16120.73 5873.88,16030.34 5782.84,16027.88 "/>
    <polygon class="fil1" points="5967.65,15941.95 6058.14,15943.96 6061.41,15853.57 5970.59,15850.94 "/>
    <polygon class="fil1" points="6904.76,15057.52 6995.79,15060.15 6998.53,14969.13 6908.28,14967.33 "/>
    <path class="fil2" d="M6061.35 15845.89l3.05 -83.11 -92.03 -3.68 -3.48 88.74c29.92,1.59 64.36,6.77 92.46,-1.95z"/>
    <path class="fil2" d="M6811.47 15138.48l2.92 -82.94 -91.83 -3.58 -3.32 88.69c29.79,1.63 64.4,6.9 92.23,-2.17z"/>
    <path class="fil2" d="M6064.4 15762.78l82.8 1.86c10.68,-27.19 7.56,-62.09 7.43,-91.74l-88.4 -2.56 -1.83 92.44z"/>
    <polygon class="fil2" points="5875.29,15935.86 5965.05,15939.29 5967.56,15849.48 5878.42,15846.71 "/>
    <path class="fil2" d="M5695.86 16115.83l76.61 2.37c10.33,-27.48 7.3,-62.2 7.22,-92l-85.98 -2.56c-1.82,29.61 -7.17,64.5 2.15,92.19z"/>
    <polygon class="fil2" points="5784.72,15935.64 5781.5,16024.79 5871.35,16027.59 5873.46,15937.76 "/>
    <polygon class="fil2" points="6441.03,15317 6438.06,15406.07 6527.63,15408.78 6529.69,15319.24 "/>
    <polygon class="fil2" points="6347.45,15405.54 6344.4,15494.39 6433.81,15497.17 6436.31,15407.61 "/>
    <polygon class="fil2" points="6253.73,15493.96 6250.53,15582.7 6340.08,15585.56 6342.3,15495.97 "/>
    <polygon class="fil2" points="6535.04,15228.73 6531.8,15317.28 6621.32,15320.47 6623.87,15230.98 "/>
    <polygon class="fil2" points="6628.8,15140.42 6625.59,15228.66 6715.08,15232.12 6717.58,15142.6 "/>
   </g>
  </g>
 </g>
</svg>
