<?xml version="1.0" encoding="UTF-8"?>
<!DOCTYPE svg PUBLIC "-//W3C//DTD SVG 1.1//EN" "http://www.w3.org/Graphics/SVG/1.1/DTD/svg11.dtd">
<!-- Creator: CorelDRAW 2019 (64 Bit) -->
<svg xmlns="http://www.w3.org/2000/svg" xml:space="preserve" width="210mm" height="297mm" version="1.1" style="shape-rendering:geometricPrecision; text-rendering:geometricPrecision; image-rendering:optimizeQuality; fill-rule:evenodd; clip-rule:evenodd"
viewBox="0 0 21000 29700"
 xmlns:xlink="http://www.w3.org/1999/xlink">
 <defs>
  <style type="text/css">
   <![CDATA[
    .fil5 {fill:black}
    .fil0 {fill:black}
    .fil8 {fill:#686868}
    .fil12 {fill:#9C9C9C}
    .fil3 {fill:#9D9D9D}
    .fil4 {fill:#C1923C}
    .fil7 {fill:#C3C7C8}
    .fil6 {fill:#C4C8C9}
    .fil9 {fill:#D5AE69}
    .fil11 {fill:gainsboro}
    .fil2 {fill:gainsboro}
    .fil10 {fill:#EBD491}
    .fil1 {fill:yellow;fill-rule:nonzero}
   ]]>
  </style>
 </defs>
 <g id="Camada_x0020_1">
  <metadata id="CorelCorpID_0Corel-Layer"/>
  <g id="_1493076040800">
   <rect class="fil0" x="8033.1" y="16691.33" width="444.94" height="381.19"/>
   <g>
    <path class="fil1" d="M13332.61 18273.11l407.24 0.93 -0.94 407.24 -407.23 -0.99 -407.29 -0.93 -407.24 -0.99 -407.24 -0.93 -407.23 -0.99 0.93 -407.24 407.24 0.99 407.24 0.93 407.23 0.99 407.29 0.99zm407.24 0.93l0.99 -407.23 407.23 0.99 -0.98 407.23 -407.24 -0.99zm-2036.24 -4.83l-407.23 -0.93 0.98 -407.24 -407.23 -0.99 0.93 -407.24 -407.24 -0.93 0.99 -407.24 0.94 -407.29 407.23 0.94 0.99 -407.24 407.24 0.99 0.99 -407.24 -407.24 -0.99 0.94 -407.23 -407.24 -0.94 0.99 -407.24 0.93 -407.23 407.24 0.93 0.99 -407.23 407.23 0.98 0.94 -407.23 407.24 0.98 407.23 0.94 407.24 0.99 407.24 0.93 407.29 0.99 -0.94 407.24 407.24 0.93 -0.99 407.24 407.24 0.99 -0.99 407.23 407.24 0.94 -0.94 407.24 -0.99 407.23 -407.23 -0.93 -0.94 407.24 -407.24 -0.99 -0.98 407.23 407.23 0.99 -0.93 407.29 407.23 0.94 -0.98 407.23 -0.94 407.24 -407.24 -0.93 0.94 -407.24 0.99 -407.24 -407.24 -0.99 0.94 -407.29 -407.24 -0.93 0.99 -407.24 -407.29 -0.99 0.93 -407.23 407.29 0.99 407.24 0.93 407.24 0.99 1.92 -814.48 -407.24 -0.98 -407.18 -0.94 -407.29 -0.99 -407.24 -0.93 -407.24 -0.99 -0.98 407.24 -407.24 -0.99 -0.94 407.24 -0.98 407.23 407.23 0.99 -0.98 407.24 407.23 0.93 -0.93 407.29 407.23 0.99 -0.98 407.24 -407.24 -0.99 -407.24 -0.94 -407.23 -0.98 -0.94 407.23 -0.99 407.24zm2448.31 -2030.41l0.94 -407.24 -0.94 407.24z"/>
    <path class="fil1" d="M8217.73 15501l407.29 -0.72 0.73 407.23 -407.29 0.73 -407.24 0.68 -0.73 -407.24 407.24 -0.68zm407.29 -0.72l-0.73 -407.24 -0.68 -407.29 -0.72 -407.24 407.23 -0.73 407.24 -0.72 407.24 -0.73 0.67 407.24 -407.23 0.72 -407.19 0.73 0.68 407.29 0.72 407.24 -407.23 0.73zm-814.53 1.4l-407.23 0.73 -0.73 -407.24 -407.24 0.73 -0.68 -407.29 -407.23 0.73 -0.73 -407.24 -0.73 -407.24 -0.73 -407.24 -0.72 -407.28 -0.73 -407.24 -0.73 -407.24 -0.67 -407.24 -0.73 -407.28 407.24 -0.73 -0.73 -407.24 407.23 -0.73 407.24 -0.67 407.24 -0.73 407.29 -0.73 407.23 -0.73 0.73 407.24 407.24 -0.73 0.67 407.29 407.24 -0.72 0.73 407.23 407.29 -0.73 0.73 407.24 407.23 -0.73 0.73 407.24 0.73 407.29 0.73 407.24 -407.24 0.72 0.73 407.24 -407.29 0.73 -0.73 -407.24 407.29 -0.73 -0.73 -407.23 -0.73 -407.29 -0.72 -407.24 -407.29 0.73 -0.73 -407.24 -407.24 0.73 -407.23 0.73 -407.24 0.73 -407.29 0.72 -407.24 0.73 0.73 407.24 0.73 407.23 0.73 407.29 0.72 407.24 0.73 407.19 0.73 407.23 0.67 407.29 0.73 407.24zm1217.45 -2445.66l407.24 -0.73 0.73 407.29 -407.24 0.73 -407.24 0.73 -0.73 -407.29 407.24 -0.73zm1223.95 1219.58l-0.73 -407.24 -0.73 -407.23 -0.73 -407.29 -0.72 -407.24 -0.73 -407.24 3.64 2036.24z"/>
    <rect class="fil2" x="11070.65" y="14877.78" width="326.58" height="332.47"/>
    <g>
     <path class="fil3" d="M11420.27 14240.28l-324.71 -9.84 8.95 -325.04 325.48 9.09 -9.72 325.79zm1000.79 -944.91l-324.92 -9.26 10.33 -324.78 324.65 10.55 -10.06 323.49zm47.24 -1620.82l-9.93 324.38 -323.77 -9.94 -9.82 324.57 -323.89 -10.01 -9.82 324.57 -323.89 -10 -9.93 324.52 -323.8 -9.84 -9.91 324.4 -323.8 -9.93 -9.82 324.54 -323.89 -9.98 -9.81 324.56 -323.9 -10 -9.19 323.82 -324.54 -9.14 -9.17 323.7 -324.54 -9.26 -9.14 323.95 -324.56 -9.36 -9.15 323.92 -324.56 -9.36 -9.19 323.8 -324.55 -9.11 -8.9 324.32 323.11 10.13 -8.52 323.58 324.9 11.26 7.9 -325.84 324.9 9.28 -8.4 323.56 322.34 9.65 19.09 -647.51 648.76 19.22 19.07 -647.89 648.63 18.67 9.6 -324.11 324.06 9.69 10 -323.08 323.54 8.4 10.08 -324.04 322.98 8.92 10.84 -323.41 323.73 9.26 9.62 -324.04 324.07 9.74 10.46 -323.94 323.24 9.12 19.05 -648.52 323.04 8.19 10.81 -322.48 322.99 8.01 10.77 -323.65 323.97 17.41 8.76 -330.44 -1296.21 -38.94 -9.91 324.52 -323.8 -9.84z"/>
     <polygon class="fil4" points="8102.05,16736.89 8424.82,16746.85 8749.41,16754.86 8742.07,17079.83 9061.45,17087.51 9074.12,16764.31 9084.2,16440.95 8761.6,16430.84 8769.42,16107.38 8446.94,16097.18 8454.83,15773.67 8132.37,15763.43 8140.36,15439.65 7817.91,15429.77 7825.71,15106.02 7178.25,15086.99 7157.67,15736.1 7480.41,15746.1 7472.57,16069.91 7794.97,16079.81 7787.11,16403.66 8109.63,16413.52 "/>
     <path class="fil5" d="M9389.88 17098.31l323.34 10.15 -9.78 324.06 324.59 9.6 -0.68 18.43 -19.62 630.46 -647.79 -19.02 8.73 -322.77 -323.32 -10.82 8.4 -323.95 -323.34 -9.76 0.72 -18.5 10.94 -306.36 -325.98 -9.02 -8.96 324.21c392.14,8.49 325.75,-54.29 314.28,333.35 391.79,11.56 326.15,-58.09 314.59,333.7 391.77,11.57 326.13,-58.08 314.56,333.71l972.4 28.72 28.72 -972.4c-391.77,-11.59 -326.12,58.06 -314.56,-333.73 -365.69,-10.8 -343.28,60.19 -312.45,-331.48l-27.23 -1.85 -272.65 -8.44 -26.85 -0.99 -8.06 322.7z"/>
     <path class="fil5" d="M7776.38 16725.8l325.67 11.09 7.58 -323.37 -322.52 -9.86 7.86 -323.85 -322.4 -9.9 7.84 -323.81 -322.74 -10 20.58 -649.11 647.46 19.03 -7.8 323.75 322.45 9.88 -7.99 323.78 322.46 10.24 8.9 -324.32c-392.05,-7.68 -325.4,53.16 -314.01,-333.26 -391.79,-11.56 -326.12,58.09 -314.56,-333.71l-972.4 -28.71 -28.75 972.4c391.79,11.59 326.15,-58.06 314.59,333.71 391.77,11.59 326.13,-58.06 314.56,333.73 375.46,11.08 336.83,-59.64 313.22,332.29z"/>
     <polygon class="fil5" points="12802.01,11359.87 14098.22,11398.81 14089.46,11729.25 14070.14,12385.97 14061,12695.47 14384.97,12704.87 14432.86,11084.2 12812.16,11036.31 "/>
     <path class="fil6" d="M11410.27 14563.36l315.21 7.15 -7.92 318.86 -318.69 -10.18 11.4 -315.83zm333.54 -314.68l316.24 7.34 -8.9 318.76 -318.18 -9.89 10.84 -316.21zm333.06 -315.12l315.55 7.97 -7.35 318.69 -318.76 -9.67 10.56 -316.99zm334.57 -314.15l316.14 8.01 -9.06 318.48 -318.62 -11.35 11.54 -315.14zm333.69 -314.3l315.97 7.75 -8.87 318.59 -318.53 -12.31 11.43 -314.03zm0 0l-324.07 -9.74 -9.62 324.04 -323.73 -9.26 -10.84 323.41 -322.98 -8.92 -10.08 324.04 -323.54 -8.4 -10 323.08 -324.06 -9.69 -9.6 324.11 324.9 14.01 325.34 7.6 9.72 -323.31 323.99 8.75 9.74 -323.24 323.98 8.68 9.7 -323.34 324.01 8.78 10.37 -324.02 323.34 9.46 10.44 -323.92 323.27 9.33 -0.14 -28.36c-99.04,32.3 -222.22,13.51 -328.26,7.73l11.82 -315.64 -323.24 -9.12 -10.46 323.94z"/>
     <path class="fil7" d="M9741.06 16135.29l315.81 7.55 -7.51 319.7 -319.77 -9.94 11.47 -317.31zm333.47 -316.49l317.24 9.86 -8.92 319.65 -319.46 -12.21 11.14 -317.3zm-333.47 316.49l-322.34 -9.65 8.4 -323.56 -324.9 -9.28 -7.9 325.84 -10.12 322.31 320.85 10.41 -7.11 324.25 26.85 0.99c-33.16,-98.56 -14.13,-222.72 -7.65,-328.12l306.02 9.12c0.26,106.07 11.06,229.65 -25.72,327.44l27.23 1.85 9.69 -323.32 324.02 8.75 9.69 -323.41 324.02 8.85 10.46 -323.89 323.24 9.33 -0.21 -27.3c-100,31 -222.58,12.57 -329.06,6.91l12.39 -315.81 -648.76 -19.22 -19.09 647.51z"/>
     <path class="fil7" d="M13078.83 12990.29l326.83 12.74 4.31 -328.63 329.85 14.66 3.38 -330.11c106.65,2.57 229.23,-9.91 326.94,27.02l19.32 -656.72 -323.97 -17.41 -10.77 323.65 -322.99 -8.01 -10.81 322.48 -323.04 -8.19 -19.05 648.52z"/>
     <polygon class="fil8" points="7442.84,17040.53 7433.58,17365.77 7109.3,17355.12 7101.19,17681.01 7426.65,17689.45 7749.49,17700.68 7758,17375.82 8083.75,17385.64 8093.92,17060.81 8102.05,16736.89 7776.38,16725.8 7767.45,17051.21 "/>
     <polygon class="fil9" points="8742.07,17079.83 8731.13,17386.19 8730.41,17404.69 9053.75,17414.45 9045.35,17738.4 9368.67,17749.22 9691.42,17755.12 9703.44,17432.52 9378.82,17422.78 9389.88,17098.31 9397.94,16775.61 9074.12,16764.31 9061.45,17087.51 "/>
     <polygon class="fil5" points="7396.15,18662.48 7406.01,18338.78 7087.83,18329.11 6757.6,18318.41 6766.72,17998.5 6775.4,17669.68 6452.44,17661.46 6423.72,18633.76 "/>
     <path class="fil6" d="M10408.91 15507l327.54 13.08 6.5 -328.99 314.61 9.12c0.48,105.52 11.56,229.73 -26.44,326.48l28.31 1.83 10.37 -323.97 323.34 9.41 -0.17 -28.36c-99.18,32.34 -222.55,13.46 -328.26,7.73l11.9 -315.55 -648.63 -18.67 -19.07 647.89z"/>
     <polygon class="fil10" points="9368.67,17749.22 9359.94,18071.99 10007.73,18091.01 10027.35,17460.55 10028.03,17442.12 9703.44,17432.52 9691.42,17755.12 "/>
     <path class="fil11" d="M13739.82 12689.06l321.18 6.41 9.14 -309.5c-97.71,-36.93 -220.29,-24.45 -326.94,-27.02l-3.38 330.11z"/>
     <polygon class="fil3" points="7090.47,18003.92 7417,18015.82 7426.65,17689.45 7101.19,17681.01 "/>
     <polygon class="fil8" points="6766.72,17998.5 7090.47,18003.92 7101.19,17681.01 6775.4,17669.68 "/>
     <polygon class="fil11" points="13405.66,13003.03 13727.27,13010.05 13739.82,12689.06 13409.97,12674.4 "/>
     <polygon class="fil7" points="11420.27,14240.28 11429.99,13914.49 11104.51,13905.4 11095.56,14230.44 "/>
     <polygon class="fil9" points="8416.09,17070.81 8742.07,17079.83 8749.41,16754.86 8424.82,16746.85 "/>
     <polygon class="fil12" points="7749.49,17700.68 8073.81,17709.8 8083.75,17385.64 7758,17375.82 "/>
     <polygon class="fil12" points="7087.83,18329.11 7090.47,18003.92 6766.72,17998.5 6757.6,18318.41 "/>
     <polygon class="fil7" points="12421.06,13295.37 12431.12,12971.88 12106.47,12961.33 12096.14,13286.11 "/>
     <polygon class="fil5" points="6775.4,17669.68 7101.19,17681.01 7109.3,17355.12 6786.15,17346.89 "/>
     <polygon class="fil10" points="9703.44,17432.52 9713.22,17108.46 9389.88,17098.31 9378.82,17422.78 "/>
     <polygon class="fil5" points="7442.84,17040.53 7767.45,17051.21 7776.38,16725.8 7453.59,16717.77 "/>
     <polygon class="fil5" points="11467.18,12618.12 11791.07,12628.12 11800.89,12303.55 11477.28,12294.63 "/>
     <polygon class="fil5" points="11800.89,12303.55 12124.78,12313.56 12134.6,11988.99 11811.01,11980.07 "/>
     <polygon class="fil5" points="10132.32,13876.39 10456.22,13886.39 10466.03,13561.83 10142.44,13552.9 "/>
     <polygon class="fil5" points="8797.47,15134.66 9122.03,15144.02 9131.18,14820.1 8807.59,14811.15 "/>
     <polygon class="fil5" points="10466.03,13561.83 10789.92,13571.81 10799.74,13247.27 10476.15,13238.32 "/>
     <polygon class="fil5" points="9131.18,14820.1 9455.74,14829.46 9464.88,14505.51 9141.3,14496.59 "/>
     <polygon class="fil5" points="11133.45,12932.8 11457.25,12942.64 11467.18,12618.12 11143.57,12609.19 "/>
     <polygon class="fil5" points="12468.3,11674.55 12792.1,11684.39 12802.01,11359.87 12478.43,11350.92 "/>
     <polygon class="fil5" points="8463.73,15449.35 8788.28,15458.46 8797.47,15134.66 8473.86,15125.71 "/>
     <polygon class="fil5" points="9798.59,14191.07 10123.13,14200.21 10132.32,13876.39 9808.72,13867.46 "/>
     <polygon class="fil7" points="7417,18015.82 7739.75,18024.05 7749.49,17700.68 7426.65,17689.45 "/>
     <polygon class="fil5" points="9464.88,14505.51 9789.42,14514.77 9798.59,14191.07 9475.01,14182 "/>
     <polygon class="fil5" points="10799.74,13247.27 11123.54,13257.2 11133.45,12932.8 10809.86,12923.76 "/>
     <polygon class="fil5" points="7109.3,17355.12 7433.58,17365.77 7442.84,17040.53 7119.85,17032.33 "/>
     <polygon class="fil5" points="12134.6,11988.99 12458.37,11998.93 12468.3,11674.55 12144.72,11665.48 "/>
     <polygon class="fil5" points="7739.75,18024.05 8063.57,18033.33 8073.81,17709.8 7749.49,17700.68 "/>
     <polygon class="fil5" points="8073.81,17709.8 8397.28,17718.73 8407.13,17395.02 8083.75,17385.64 "/>
     <polygon class="fil7" points="8083.75,17385.64 8407.13,17395.02 8416.09,17070.81 8093.92,17060.81 "/>
     <polygon class="fil5" points="7406.01,18338.78 7729.86,18347.87 7739.75,18024.05 7417,18015.82 "/>
     <polygon class="fil5" points="9084.2,16440.95 9094.32,16118.64 8769.42,16107.38 8761.6,16430.84 "/>
     <polygon class="fil7" points="7087.83,18329.11 7406.01,18338.78 7417,18015.82 7090.47,18003.92 "/>
     <polygon class="fil5" points="8769.42,16107.38 8777.94,15783.8 8454.83,15773.67 8446.94,16097.18 "/>
     <polygon class="fil5" points="9074.12,16764.31 9397.94,16775.61 9405.05,16451.36 9084.2,16440.95 "/>
     <polygon class="fil5" points="11392.97,15185.6 11393.14,15213.96 11715.28,15221.23 11726.85,14899.39 11401.51,14891.79 "/>
     <polygon class="fil5" points="10725.58,15815.9 10725.79,15843.2 11047.84,15850.35 11059.43,15528.52 11031.12,15526.69 10736.45,15520.08 "/>
     <polygon class="fil5" points="13395.27,13298.2 13395.41,13326.56 13717.56,13333.83 13727.27,13010.05 13405.66,13003.03 "/>
     <polygon class="fil5" points="12727.99,13955.71 13050.14,13962.95 13061.7,13641.15 12738.36,13631.69 "/>
     <polygon class="fil5" points="11059.43,15528.52 11381.55,15535.79 11393.14,15213.96 11069.8,15204.55 "/>
     <polygon class="fil5" points="12394.28,14270.27 12716.41,14277.54 12727.99,13955.71 12403.98,13946.93 "/>
     <polygon class="fil5" points="11726.85,14899.39 12048.99,14906.67 12060.56,14584.83 11736.57,14576.08 "/>
     <polygon class="fil5" points="13061.7,13641.15 13383.85,13648.39 13395.41,13326.56 13072.14,13317.23 "/>
     <polygon class="fil5" points="12060.56,14584.83 12382.7,14592.11 12394.28,14270.27 12070.3,14261.59 "/>
     <polygon class="fil5" points="10058.38,16472.32 10380.43,16479.48 10392.09,16157.76 10068.07,16148.91 "/>
     <polygon class="fil5" points="9724.67,16786.89 10046.69,16794.04 10058.38,16472.32 9734.36,16463.57 "/>
     <polygon class="fil5" points="10392.09,16157.76 10714.14,16164.92 10725.79,15843.2 10402.55,15833.87 "/>
     <polygon class="fil5" points="13727.27,13010.05 14051.26,13019.43 14061,12695.47 13739.82,12689.06 "/>
     <path class="fil11" d="M10725.58 15815.9l10.87 -295.82 -327.54 -13.08 -12.39 315.81c106.48,5.66 229.06,24.09 329.06,-6.91z"/>
     <path class="fil11" d="M13395.27 13298.2l10.39 -295.17 -326.83 -12.74 -11.82 315.64c106.04,5.78 229.22,24.57 328.26,-7.73z"/>
     <path class="fil11" d="M10736.45 15520.08l294.67 6.61c38,-96.75 26.92,-220.96 26.44,-326.48l-314.61 -9.12 -6.5 328.99z"/>
     <polygon class="fil11" points="10063.39,16136.1 10382.85,16148.31 10391.77,15828.66 10074.53,15818.8 "/>
     <path class="fil11" d="M9424.79 16776.6l272.65 8.44c36.78,-97.79 25.98,-221.37 25.72,-327.44l-306.02 -9.12c-6.48,105.4 -25.51,229.56 7.65,328.12z"/>
     <polygon class="fil11" points="9741.06,16135.29 9729.59,16452.6 10049.36,16462.54 10056.87,16142.84 "/>
     <polygon class="fil11" points="12076.87,13933.56 12066.31,14250.55 12385.07,14260.22 12392.42,13941.53 "/>
     <polygon class="fil11" points="11743.81,14248.68 11732.97,14564.89 12051.15,14574.78 12060.05,14256.02 "/>
     <polygon class="fil11" points="11410.27,14563.36 11398.87,14879.19 11717.56,14889.37 11725.48,14570.51 "/>
     <polygon class="fil11" points="12411.44,13619.41 12399.9,13934.55 12718.52,13945.9 12727.58,13627.42 "/>
     <polygon class="fil11" points="12745.13,13305.11 12733.7,13619.14 13052.23,13631.45 13061.1,13312.86 "/>
    </g>
   </g>
  </g>
 </g>
</svg>
